<svg xmlns="http://www.w3.org/2000/svg" xmlns:xlink="http://www.w3.org/1999/xlink" width="500" zoomAndPan="magnify" viewBox="0 0 375 374.999991" height="500" preserveAspectRatio="xMidYMid meet" version="1.2"><defs><clipPath id="b802f2ab5f"><path d="M 59.230469 212.460938 L 123.503906 212.460938 L 123.503906 264 L 59.230469 264 Z M 59.230469 212.460938 "/></clipPath><clipPath id="8126bff2d2"><path d="M 122.644531 214.980469 C 122.972656 215.613281 123.144531 216.265625 123.144531 216.921875 C 123.144531 217.347656 123.070312 217.78125 122.921875 218.226562 L 109.226562 260.75 C 108.589844 262.675781 107.253906 263.636719 105.203125 263.636719 C 103.148438 263.636719 101.8125 262.675781 101.183594 260.75 L 91.46875 230.707031 L 81.796875 260.75 C 81.164062 262.675781 79.828125 263.636719 77.773438 263.636719 C 75.71875 263.636719 74.382812 262.675781 73.753906 260.75 L 60.066406 218.234375 C 59.917969 217.78125 59.84375 217.347656 59.84375 216.929688 C 59.84375 216.265625 60.007812 215.613281 60.34375 214.988281 C 60.859375 213.964844 61.664062 213.269531 62.785156 212.910156 C 63.234375 212.761719 63.675781 212.6875 64.09375 212.6875 C 64.757812 212.6875 65.398438 212.851562 66.035156 213.1875 C 67.058594 213.703125 67.75 214.507812 68.109375 215.628906 L 77.78125 245.671875 L 87.449219 215.628906 C 88.085938 213.671875 89.421875 212.695312 91.476562 212.695312 C 93.550781 212.695312 94.894531 213.671875 95.5 215.628906 L 105.214844 245.671875 L 114.886719 215.628906 C 115.246094 214.515625 115.941406 213.703125 116.960938 213.1875 C 117.597656 212.859375 118.238281 212.6875 118.902344 212.6875 C 119.324219 212.6875 119.761719 212.761719 120.210938 212.910156 C 121.324219 213.269531 122.136719 213.964844 122.652344 214.988281 "/></clipPath><clipPath id="febcd2d846"><path d="M 125.375 212.460938 L 177 212.460938 L 177 264 L 125.375 264 Z M 125.375 212.460938 "/></clipPath><clipPath id="977f2133e5"><path d="M 167.691406 234 C 166.726562 230.265625 164.71875 227.195312 161.679688 224.785156 C 158.542969 222.34375 155.011719 221.125 151.058594 221.125 C 147.085938 221.125 143.53125 222.34375 140.394531 224.785156 C 137.355469 227.195312 135.347656 230.265625 134.382812 234 Z M 132.898438 256.1875 C 130.554688 253.832031 128.722656 251.160156 127.433594 248.144531 C 126.074219 244.984375 125.402344 241.683594 125.402344 238.25 C 125.402344 231.199219 127.902344 225.171875 132.898438 220.175781 C 135.28125 217.824219 138.007812 216.003906 141.074219 214.710938 C 144.242188 213.351562 147.566406 212.679688 151.058594 212.679688 C 158.109375 212.679688 164.148438 215.179688 169.175781 220.175781 C 171.527344 222.53125 173.351562 225.242188 174.640625 228.308594 C 176 231.476562 176.671875 234.785156 176.671875 238.25 C 176.671875 239.421875 176.261719 240.414062 175.457031 241.226562 C 174.613281 242.070312 173.605469 242.492188 172.429688 242.492188 L 134.390625 242.492188 C 135.355469 246.164062 137.371094 249.1875 140.449219 251.570312 C 143.546875 253.984375 147.085938 255.183594 151.066406 255.183594 C 157.332031 255.183594 162.164062 253.273438 165.570312 249.449219 C 166.324219 248.578125 167.285156 248.113281 168.457031 248.046875 C 169.632812 247.980469 170.660156 248.328125 171.535156 249.085938 C 172.410156 249.867188 172.871094 250.847656 172.9375 252.019531 C 173 253.160156 172.640625 254.167969 171.855469 255.042969 C 166.792969 260.761719 159.871094 263.632812 151.074219 263.632812 C 143.996094 263.632812 137.9375 261.144531 132.914062 256.179688 "/></clipPath><clipPath id="0989118f01"><path d="M 178.417969 195 L 208.992188 195 L 208.992188 264 L 178.417969 264 Z M 178.417969 195 "/></clipPath><clipPath id="f59145cec6"><path d="M 204.78125 212.679688 C 205.953125 212.679688 206.945312 213.105469 207.761719 213.941406 C 208.574219 214.753906 208.984375 215.75 208.984375 216.921875 C 208.984375 218.09375 208.574219 219.085938 207.761719 219.902344 C 206.945312 220.746094 205.953125 221.171875 204.78125 221.171875 L 198.1875 221.171875 L 198.1875 259.441406 C 198.1875 260.613281 197.777344 261.605469 196.96875 262.421875 C 196.164062 263.234375 195.164062 263.636719 193.992188 263.636719 C 192.816406 263.636719 191.824219 263.234375 191.011719 262.421875 C 190.167969 261.605469 189.742188 260.613281 189.742188 259.441406 L 189.742188 221.171875 L 183.191406 221.171875 C 182.019531 221.171875 181.003906 220.746094 180.167969 219.902344 C 179.355469 219.085938 178.949219 218.09375 178.949219 216.921875 C 178.949219 215.75 179.355469 214.753906 180.167969 213.941406 C 181.011719 213.097656 182.019531 212.679688 183.191406 212.679688 L 189.742188 212.679688 L 189.742188 199.664062 C 189.742188 198.492188 190.160156 197.5 191.011719 196.683594 C 191.824219 195.839844 192.816406 195.414062 193.992188 195.414062 C 195.164062 195.414062 196.15625 195.839844 196.96875 196.683594 C 197.785156 197.5 198.1875 198.492188 198.1875 199.664062 L 198.1875 212.671875 Z M 204.78125 212.679688 "/></clipPath><clipPath id="7e0c0f0e8b"><path d="M 211 212.460938 L 261.410156 212.460938 L 261.410156 264 L 211 264 Z M 211 212.460938 "/></clipPath><clipPath id="03fc0598c1"><path d="M 236.316406 255.191406 C 240.894531 255.191406 244.816406 253.535156 248.0625 250.21875 C 251.320312 246.875 252.945312 242.871094 252.945312 238.203125 C 252.945312 233.507812 251.320312 229.480469 248.0625 226.144531 C 244.816406 222.828125 240.894531 221.171875 236.316406 221.171875 C 231.738281 221.171875 227.820312 222.828125 224.570312 226.144531 C 221.3125 229.488281 219.695312 233.507812 219.695312 238.203125 C 219.695312 242.871094 221.320312 246.882812 224.570312 250.21875 C 227.820312 253.535156 231.738281 255.191406 236.316406 255.191406 M 236.316406 212.679688 C 243.214844 212.679688 249.117188 215.179688 254.03125 220.175781 C 258.9375 225.152344 261.390625 231.15625 261.390625 238.203125 C 261.390625 245.222656 258.9375 251.21875 254.03125 256.1875 C 249.125 261.152344 243.214844 263.636719 236.316406 263.636719 C 229.386719 263.636719 223.488281 261.152344 218.601562 256.1875 C 213.699219 251.21875 211.242188 245.222656 211.242188 238.203125 C 211.242188 231.15625 213.699219 225.152344 218.601562 220.175781 C 223.480469 215.179688 229.386719 212.679688 236.316406 212.679688 "/></clipPath><clipPath id="931fdae1b6"><path d="M 265 212.460938 L 315.699219 212.460938 L 315.699219 264 L 265 264 Z M 265 212.460938 "/></clipPath><clipPath id="4b3fb8c9b9"><path d="M 290.082031 255.191406 C 294.660156 255.191406 298.574219 253.535156 301.828125 250.21875 C 305.085938 246.875 306.707031 242.871094 306.707031 238.203125 C 306.707031 233.507812 305.078125 229.480469 301.828125 226.144531 C 298.574219 222.828125 294.660156 221.171875 290.082031 221.171875 C 285.503906 221.171875 281.585938 222.828125 278.335938 226.144531 C 275.082031 229.488281 273.453125 233.507812 273.453125 238.203125 C 273.453125 242.871094 275.082031 246.882812 278.335938 250.21875 C 281.585938 253.535156 285.503906 255.191406 290.082031 255.191406 M 290.082031 212.679688 C 296.976562 212.679688 302.882812 215.179688 307.796875 220.175781 C 312.703125 225.152344 315.160156 231.15625 315.160156 238.203125 C 315.160156 245.222656 312.703125 251.21875 307.796875 256.1875 C 302.890625 261.152344 296.984375 263.636719 290.082031 263.636719 C 283.152344 263.636719 277.253906 261.152344 272.371094 256.1875 C 267.457031 251.21875 265.007812 245.222656 265.007812 238.203125 C 265.007812 231.15625 267.464844 225.152344 272.371094 220.175781 C 277.246094 215.179688 283.152344 212.679688 290.082031 212.679688 "/></clipPath><clipPath id="52e83cd196"><path d="M 111.648438 111 L 265 111 L 265 196 L 111.648438 196 Z M 111.648438 111 "/></clipPath><clipPath id="6efd2b042f"><path d="M 214.964844 172.726562 C 213.046875 171.585938 211.160156 171.445312 209.066406 172.316406 C 198.441406 176.753906 186.835938 170.742188 184.476562 159.621094 C 184.355469 159.054688 184.179688 158.449219 184.246094 157.890625 C 184.320312 157.300781 184.523438 156.621094 184.902344 156.1875 C 185.410156 155.613281 186.15625 155.753906 186.804688 156.136719 C 188.972656 157.414062 191.128906 158.695312 193.296875 159.972656 C 195.714844 161.398438 197.460938 160.953125 198.902344 158.53125 C 200.242188 156.285156 201.585938 154.039062 202.90625 151.773438 C 204.09375 149.734375 203.617188 147.875 201.605469 146.667969 C 199.417969 145.351562 197.230469 144.058594 195.027344 142.769531 C 194.332031 142.359375 193.8125 141.863281 193.894531 140.976562 C 193.976562 140.085938 194.582031 139.714844 195.335938 139.414062 C 206.589844 135.015625 218.535156 142.410156 219.714844 154.539062 C 219.925781 156.671875 220.949219 158.203125 222.753906 159.28125 C 231.132812 164.253906 239.511719 169.234375 247.898438 174.199219 C 250.632812 175.820312 253.363281 177.425781 256.105469 179.03125 C 261.421875 171.960938 264.574219 163.171875 264.574219 153.648438 C 264.574219 130.289062 245.636719 111.359375 222.285156 111.359375 C 208.285156 111.359375 195.878906 118.171875 188.179688 128.65625 C 180.480469 118.171875 168.078125 111.359375 154.078125 111.359375 C 145.667969 111.359375 137.84375 113.824219 131.261719 118.050781 C 134.652344 120.058594 138.035156 122.074219 141.425781 124.085938 C 148.289062 128.15625 155.160156 132.210938 162.015625 136.292969 C 163.933594 137.4375 165.824219 137.578125 167.914062 136.703125 C 178.539062 132.269531 190.144531 138.28125 192.503906 149.398438 C 192.625 149.976562 192.804688 150.570312 192.734375 151.132812 C 192.660156 151.722656 192.460938 152.402344 192.078125 152.835938 C 191.570312 153.410156 190.824219 153.269531 190.175781 152.886719 C 188.007812 151.609375 185.851562 150.324219 183.683594 149.046875 C 181.265625 147.613281 179.519531 148.070312 178.078125 150.488281 C 176.742188 152.738281 175.394531 154.984375 174.074219 157.25 C 172.886719 159.28125 173.363281 161.144531 175.375 162.355469 C 177.5625 163.671875 179.75 164.960938 181.953125 166.253906 C 182.648438 166.664062 183.171875 167.15625 183.085938 168.046875 C 183.003906 168.933594 182.402344 169.308594 181.648438 169.605469 C 170.394531 174.003906 158.445312 166.605469 157.265625 154.484375 C 157.054688 152.347656 156.03125 150.820312 154.226562 149.742188 C 145.847656 144.769531 137.46875 139.789062 129.082031 134.824219 C 125.917969 132.949219 122.742188 131.089844 119.570312 129.222656 C 114.671875 136.121094 111.789062 144.546875 111.789062 153.65625 C 111.789062 177.015625 130.71875 195.945312 154.078125 195.945312 C 168.078125 195.945312 180.480469 189.132812 188.179688 178.648438 C 195.878906 189.132812 208.285156 195.945312 222.285156 195.945312 C 230.222656 195.945312 237.644531 193.757812 243.992188 189.949219 C 241.183594 188.285156 238.371094 186.609375 235.5625 184.945312 C 228.699219 180.875 221.828125 176.820312 214.972656 172.734375 "/></clipPath></defs><g id="d01364797d"><g clip-rule="nonzero" clip-path="url(#b802f2ab5f)"><g clip-rule="nonzero" clip-path="url(#8126bff2d2)"><path style=" stroke:none;fill-rule:nonzero;fill:#232242;fill-opacity:1;" d="M 56.109375 107.625 L 318.820312 107.625 L 318.820312 267.375 L 56.109375 267.375 Z M 56.109375 107.625 "/></g></g><g clip-rule="nonzero" clip-path="url(#febcd2d846)"><g clip-rule="nonzero" clip-path="url(#977f2133e5)"><path style=" stroke:none;fill-rule:nonzero;fill:#232242;fill-opacity:1;" d="M 56.109375 107.625 L 318.820312 107.625 L 318.820312 267.375 L 56.109375 267.375 Z M 56.109375 107.625 "/></g></g><g clip-rule="nonzero" clip-path="url(#0989118f01)"><g clip-rule="nonzero" clip-path="url(#f59145cec6)"><path style=" stroke:none;fill-rule:nonzero;fill:#232242;fill-opacity:1;" d="M 56.109375 107.625 L 318.820312 107.625 L 318.820312 267.375 L 56.109375 267.375 Z M 56.109375 107.625 "/></g></g><g clip-rule="nonzero" clip-path="url(#7e0c0f0e8b)"><g clip-rule="nonzero" clip-path="url(#03fc0598c1)"><path style=" stroke:none;fill-rule:nonzero;fill:#232242;fill-opacity:1;" d="M 56.109375 107.625 L 318.820312 107.625 L 318.820312 267.375 L 56.109375 267.375 Z M 56.109375 107.625 "/></g></g><g clip-rule="nonzero" clip-path="url(#931fdae1b6)"><g clip-rule="nonzero" clip-path="url(#4b3fb8c9b9)"><path style=" stroke:none;fill-rule:nonzero;fill:#232242;fill-opacity:1;" d="M 56.109375 107.625 L 318.820312 107.625 L 318.820312 267.375 L 56.109375 267.375 Z M 56.109375 107.625 "/></g></g><g clip-rule="nonzero" clip-path="url(#52e83cd196)"><g clip-rule="nonzero" clip-path="url(#6efd2b042f)"><path style=" stroke:none;fill-rule:nonzero;fill:#0f3695;fill-opacity:1;" d="M 56.109375 107.625 L 318.820312 107.625 L 318.820312 267.375 L 56.109375 267.375 Z M 56.109375 107.625 "/></g></g></g></svg>